<svg width="18" height="21" viewBox="0 0 18 21" fill="none" xmlns="http://www.w3.org/2000/svg">
<path fill-rule="evenodd" clip-rule="evenodd" d="M-0.000305176 5.5C-0.000305176 4.17392 0.526479 2.90215 1.46416 1.96447C2.40184 1.02678 3.67361 0.5 4.99969 0.5H9.99969C10.2649 0.5 10.5193 0.605357 10.7068 0.792893C10.8943 0.98043 10.9997 1.23478 10.9997 1.5C10.9997 1.76522 10.8943 2.01957 10.7068 2.20711C10.5193 2.39464 10.2649 2.5 9.99969 2.5H4.99969C4.20405 2.5 3.44098 2.81607 2.87837 3.37868C2.31577 3.94129 1.99969 4.70435 1.99969 5.5V15.5C1.99969 16.2956 2.31577 17.0587 2.87837 17.6213C3.44098 18.1839 4.20405 18.5 4.99969 18.5H9.99969C10.2649 18.5 10.5193 18.6054 10.7068 18.7929C10.8943 18.9804 10.9997 19.2348 10.9997 19.5C10.9997 19.7652 10.8943 20.0196 10.7068 20.2071C10.5193 20.3946 10.2649 20.5 9.99969 20.5H4.99969C3.67361 20.5 2.40184 19.9732 1.46416 19.0355C0.526479 18.0979 -0.000305176 16.8261 -0.000305176 15.5V5.5Z" fill="black"/>
<path fill-rule="evenodd" clip-rule="evenodd" d="M11.4697 5.81605C11.5595 5.72014 11.6673 5.64286 11.787 5.58864C11.9067 5.53442 12.0358 5.50431 12.1672 5.50004C12.2985 5.49577 12.4293 5.51742 12.5523 5.56374C12.6752 5.61007 12.7879 5.68018 12.8837 5.77005L17.6837 10.27C17.7836 10.3636 17.8633 10.4766 17.9177 10.6022C17.9722 10.7278 18.0002 10.8632 18.0002 11C18.0002 11.1369 17.9722 11.2723 17.9177 11.3979C17.8633 11.5235 17.7836 11.6365 17.6837 11.73L12.8837 16.23C12.7878 16.3199 12.6752 16.3899 12.5523 16.4362C12.4293 16.4825 12.2985 16.5042 12.1672 16.4999C12.0359 16.4956 11.9067 16.4655 11.787 16.4113C11.6673 16.3571 11.5595 16.2799 11.4697 16.184C11.3799 16.0882 11.3098 15.9756 11.2635 15.8526C11.2172 15.7297 11.1956 15.5988 11.1998 15.4675C11.2041 15.3362 11.2342 15.207 11.2884 15.0874C11.3426 14.9677 11.4198 14.8599 11.5157 14.77L14.4707 12H4.99969C4.73448 12 4.48012 11.8947 4.29259 11.7072C4.10505 11.5196 3.99969 11.2653 3.99969 11C3.99969 10.7348 4.10505 10.4805 4.29259 10.2929C4.48012 10.1054 4.73448 10 4.99969 10H14.4707L11.5157 7.23005C11.4198 7.14025 11.3425 7.03243 11.2883 6.91276C11.2341 6.79308 11.204 6.66389 11.1997 6.53258C11.1954 6.40126 11.2171 6.27039 11.2634 6.14745C11.3097 6.0245 11.3798 5.91189 11.4697 5.81605Z" fill="black"/>
</svg>
