<svg width="303" height="302" viewBox="0 0 243 272" fill="none" xmlns="http://www.w3.org/2000/svg">
<path d="M121.69 272C82.7691 272 52.6942 260.35 31.4649 237.05C10.4883 213.497 0 179.814 0 136C0 92.1862 10.4883 58.6294 31.4649 35.3296C52.6942 11.7765 82.7691 0 121.69 0C160.863 0 190.811 11.7765 211.535 35.3296C232.512 58.6294 243 92.1862 243 136C243 179.814 232.512 213.497 211.535 237.05C190.811 260.35 160.863 272 121.69 272ZM121.69 222.235C141.908 222.235 157.198 215.017 167.56 200.581C177.922 185.892 183.103 164.365 183.103 136C183.103 107.382 177.922 85.8547 167.56 71.419C157.198 56.9832 141.908 49.7654 121.69 49.7654C101.471 49.7654 86.0546 56.9832 75.4399 71.419C65.078 85.8547 59.897 107.382 59.897 136C59.897 164.365 65.078 185.892 75.4399 200.581C86.0546 215.017 101.471 222.235 121.69 222.235Z" fill="#2167FF"/>
</svg>
